<?xml version="1.0" encoding="utf-8"?>
<!-- Generator: Adobe Illustrator 24.0.2, SVG Export Plug-In . SVG Version: 6.00 Build 0)  -->
<svg version="1.1" id="Capa_1" xmlns="http://www.w3.org/2000/svg" xmlns:xlink="http://www.w3.org/1999/xlink" x="0px" y="0px"
	 viewBox="0 0 51.5 59" style="enable-background:new 0 0 51.5 59;" xml:space="preserve">
<style type="text/css">
	.st0{fill:#FFFFFF;}
</style>
<path class="st0" d="M51.5,25.8C51.5,11.5,40,0,25.8,0S0,11.5,0,25.8c0,14.2,11.5,25.7,25.6,25.8l0.2,7.5l16.1-13.2l0,0
	C47.7,41.2,51.5,33.9,51.5,25.8z M14.4,29.8c-2.1,0-3.8-1.7-3.8-3.8s1.7-3.8,3.8-3.8c2.1,0,3.8,1.7,3.8,3.8S16.5,29.8,14.4,29.8z
	 M25.8,29.8c-2.1,0-3.8-1.7-3.8-3.8s1.7-3.8,3.8-3.8s3.8,1.7,3.8,3.8S27.8,29.8,25.8,29.8z M36.6,29.8c-2.1,0-3.8-1.7-3.8-3.8
	s1.7-3.8,3.8-3.8c2.1,0,3.8,1.7,3.8,3.8S38.7,29.8,36.6,29.8z"/>
</svg>
