<?xml version="1.0" encoding="utf-8"?>
<!-- Generator: Adobe Illustrator 24.0.2, SVG Export Plug-In . SVG Version: 6.00 Build 0)  -->
<svg version="1.1" id="Capa_1" xmlns="http://www.w3.org/2000/svg" xmlns:xlink="http://www.w3.org/1999/xlink" x="0px" y="0px"
	 viewBox="0 0 51.5 51.5" style="enable-background:new 0 0 51.5 51.5;" xml:space="preserve">
<style type="text/css">
	.st0{fill:#FB727C;}
	.st1{fill:#FFFFFF;}
</style>
<circle class="st0" cx="25.8" cy="25.8" r="25.8"/>
<path class="st1" d="M38.4,23.1C37,16.4,30.7,11.8,23.6,13c-9.2,1.6-13.7,11.6-9,19.6c0.2,0.3,0.2,0.7,0.1,1
	c-0.6,1.3-1.2,2.6-1.8,3.9c-0.1,0.3-0.2,0.7,0,0.9c0.2,0.2,0.6,0.3,0.9,0.3c1.9-0.3,3.8-0.6,5.7-0.9c0.5-0.1,1.1,0.1,1.6,0.2
	c1.4,0.3,2.8,0.8,4.2,0.8c7.3,0.3,13.4-5.7,13.4-12.9C38.7,24.9,38.6,24,38.4,23.1z"/>
</svg>
