<?xml version="1.0" encoding="utf-8"?>
<!-- Generator: Adobe Illustrator 24.0.2, SVG Export Plug-In . SVG Version: 6.00 Build 0)  -->
<svg version="1.1" id="Capa_1" xmlns="http://www.w3.org/2000/svg" xmlns:xlink="http://www.w3.org/1999/xlink" x="0px" y="0px"
	 viewBox="0 0 292.1 383.4" style="enable-background:new 0 0 292.1 383.4;" xml:space="preserve">
<style type="text/css">
	.st0{fill:#471F54;}
</style>
<g>
	<path class="st0" d="M71.9,383.4c-2.2-0.7-4.5-1.3-6.7-2.2c-12.8-5.2-20.6-14.5-21.8-28.3c-3.2-36-6.1-72.1-9.1-108.1
		c-3.1-37.5-6.3-75-9.5-112.6c-0.5-6.2-1-12.4-1.5-19.1c-3.9,0-7.6,0-11.3,0C4.7,113,0,108.4,0.1,100.9c0.1-9.1-0.5-18.3,0.7-27.2
		C3,57.5,17,45.9,33.4,45.8c17.3-0.2,34.7,0,52,0c1.3,0,2.7,0,4.4,0c0-4,0-7.7,0-11.4C90.1,14.9,104.6,0.2,124,0.1
		c14.7-0.1,29.4-0.1,44.2,0c19.2,0.1,33.8,14.7,34.1,33.9c0,3.7,0,7.5,0,11.8c1.5,0,2.8,0,4.1,0c16.8,0,33.7,0,50.5,0
		c20.9,0,35.2,14.4,35.2,35.3c0,6.6,0,13.2,0,19.8c-0.1,7.5-4.6,12.1-12.1,12.2c-3.6,0-7.2,0-11.2,0c-0.7,8.1-1.4,16-2.1,23.9
		c-2.7,32.4-5.4,64.9-8.1,97.3c-2.6,31.6-5.2,63.1-7.8,94.7c-0.7,8.3-1.3,16.7-2.2,25c-1.3,12.8-11.3,24.3-23.9,28
		c-1.5,0.4-3,0.9-4.6,1.4C170.8,383.4,121.3,383.4,71.9,383.4z M46,113.3c2.3,27.7,4.5,54.9,6.8,82.1c2.1,25.6,4.3,51.2,6.4,76.8
		c2.1,25.3,4.1,50.7,6.3,76c0.8,9.3,4.7,12.7,14,12.7c44.4,0,88.8,0,133.2,0c1.1,0,2.3,0,3.4-0.1c5.3-0.5,9.3-4.2,10.1-9.4
		c0.3-2.1,0.5-4.2,0.7-6.3c1.6-19.4,3.2-38.8,4.8-58.2c2.2-26,4.3-51.9,6.5-77.9c1.9-22.6,3.8-45.2,5.7-67.8
		c0.8-9.3,1.5-18.5,2.2-27.9C179.2,113.3,112.8,113.3,46,113.3z M22.6,90.4c82.6,0,164.7,0,247.1,0c0-2.9,0-5.5,0-8.1
		c0-10.1-4-14.1-14-14.1c-73.1,0-146.2,0-219.3,0c-1.1,0-2.3-0.1-3.4,0c-5.4,0.4-10,4.6-10.4,10.1C22.3,82.2,22.6,86.2,22.6,90.4z
		 M179.7,45.6c0-3.7,0-7,0-10.3c0-0.9,0-1.8-0.1-2.6c-0.6-5.6-5.1-10-10.8-10c-15.2-0.1-30.4-0.1-45.6,0c-5.5,0-10.2,4.2-10.8,9.6
		c-0.4,4.4-0.1,8.9-0.1,13.4C134.9,45.6,157.1,45.6,179.7,45.6z"/>
	<path class="st0" d="M112.4,237c0,29.3,0,58.6,0,87.9c0,1.7,0,3.5-0.5,5.2c-1.4,5.4-6.4,8.9-11.8,8.4c-5.5-0.5-9.8-5-10.2-10.7
		c-0.1-1,0-2,0-3c0-58.5,0-117,0-175.4c0-1.6-0.1-3.3,0.3-4.8c1.2-5.7,6.6-9.5,12.1-8.9c5.8,0.7,10,5.4,10,11.6
		c0.1,21.7,0,43.4,0,65.1C112.4,220.5,112.4,228.7,112.4,237z"/>
	<path class="st0" d="M157.3,237c0,29.3,0,58.6,0,87.9c0,1.8-0.1,3.8-0.6,5.5c-1.5,5.2-6.4,8.5-11.6,8c-5.3-0.5-9.7-4.9-10.2-10.3
		c-0.1-1.1,0-2.2,0-3.4c0-58.5,0-117,0-175.4c0-1.6-0.1-3.3,0.3-4.8c1.2-5.7,6.6-9.5,12.2-8.8c5.8,0.7,10,5.4,10,11.6
		c0.1,23.2,0,46.4,0,69.6C157.3,223.5,157.3,230.3,157.3,237z"/>
	<path class="st0" d="M179.8,237.1c0-29.8,0-59.6,0-89.4c0-8.8,7.8-14.4,15.4-11.2c4.3,1.8,6.6,5.2,7,9.8c0.1,1.7,0,3.5,0,5.2
		c0,57.7,0,115.5,0,173.2c0,1.6,0.1,3.3-0.3,4.8c-1.2,5.7-6.5,9.5-12.1,8.9c-5.8-0.7-10-5.4-10-11.6c-0.1-22.2,0-44.4,0-66.6
		C179.7,252.5,179.8,244.8,179.8,237.1z"/>
</g>
</svg>
