<?xml version="1.0" encoding="utf-8"?>
<!-- Generator: Adobe Illustrator 24.0.2, SVG Export Plug-In . SVG Version: 6.00 Build 0)  -->
<svg version="1.1" id="Capa_1" xmlns="http://www.w3.org/2000/svg" xmlns:xlink="http://www.w3.org/1999/xlink" x="0px" y="0px"
	 viewBox="0 0 180.7 207.1" style="enable-background:new 0 0 180.7 207.1;" xml:space="preserve">
<style type="text/css">
	.st0{fill:#FFFFFF;}
</style>
<title>iconUser</title>
<path class="st0" d="M180.7,90.4C180.7,40.5,140.3,0,90.4,0S0,40.4,0,90.3c0,49.7,40.1,90.1,89.8,90.4l0.5,26.4l56.4-46.2h-0.1
	C168.2,143.8,180.7,117.8,180.7,90.4z M60.3,50.4c7.3,0,13.2,5.9,13.2,13.2s-5.9,13.2-13.2,13.2s-13.2-5.9-13.2-13.2l0,0
	C47.2,56.2,53.1,50.3,60.3,50.4L60.3,50.4L60.3,50.4z M88.9,141.3c-25.3,0-45.9-20.6-45.9-45.9l0,0h91.8
	C134.8,120.7,114.2,141.3,88.9,141.3L88.9,141.3z M134.1,77.4c-0.7,1.1-1.9,1.7-3.3,1.7c-0.8,0-1.5-0.2-2.2-0.7l-17.5-11.8
	c-1.8-1.2-2.3-3.6-1.1-5.4c0.3-0.4,0.6-0.8,1.1-1.1l17.5-11.9c1.7-1.3,4.2-1,5.5,0.8c1.3,1.7,1,4.2-0.8,5.5
	c-0.1,0.1-0.2,0.1-0.3,0.2l-12.8,8.7L133,72C134.8,73.2,135.3,75.6,134.1,77.4L134.1,77.4z"/>
</svg>
