<svg id="Capa_1" data-name="Capa 1" xmlns="http://www.w3.org/2000/svg" viewBox="0 0 180.71 207.12"><defs><style>.cls-1{fill:#fff;}</style></defs><title>iconUser</title><path class="cls-1" d="M180.71,90.36A90.36,90.36,0,1,0,89.83,180.7l.53,26.42,56.45-46.21h-.05A90.14,90.14,0,0,0,180.71,90.36Zm-120.38-40A13.16,13.16,0,1,1,47.17,63.49,13.16,13.16,0,0,1,60.33,50.33Zm28.54,90.92A45.88,45.88,0,0,1,43,95.37h91.77A45.89,45.89,0,0,1,88.87,141.25ZM134.1,77.43a3.91,3.91,0,0,1-3.25,1.73,3.86,3.86,0,0,1-2.17-.66L111.14,66.73a3.91,3.91,0,0,1,0-6.48l17.54-11.9a3.91,3.91,0,1,1,4.39,6.46L120.3,63.47,133,72A3.91,3.91,0,0,1,134.1,77.43Z"/></svg>