<?xml version="1.0" encoding="utf-8"?>
<!-- Generator: Adobe Illustrator 24.0.2, SVG Export Plug-In . SVG Version: 6.00 Build 0)  -->
<svg version="1.1" id="Capa_1" xmlns="http://www.w3.org/2000/svg" xmlns:xlink="http://www.w3.org/1999/xlink" x="0px" y="0px"
	 viewBox="0 0 121 129.6" style="enable-background:new 0 0 121 129.6;" xml:space="preserve">
<style type="text/css">
	.st0{fill:#FFFFFF;}
</style>
<g>
	<path class="st0" d="M55.6,129.6c-3.8-0.8-7.7-1.3-11.5-2.3c-23.7-6.5-41.3-27.5-43.8-52s10.6-48.9,32-59.7c0.5-0.3,1-0.5,2.1-1
		c0,2.5,0,4.6,0,6.8c0,3.8,0.4,7.7-0.1,11.5c-0.5,4.1-4.9,5.5-7.2,8.5C17,54.7,14.2,69.2,20.3,84.7c5.9,15.3,17.4,24.7,33.8,27
		c18.4,2.6,33.2-4.2,43-19.9c9.8-15.8,9-32.1-1.3-47.6c-2.1-3.1-5.1-5.6-7.7-8.5c-0.6-0.7-1.5-1.5-1.5-2.3
		c-0.1-6.1-0.1-12.2-0.1-18.8c5.5,2.2,9.9,5.3,13.9,9c17.9,16.7,24.5,37.2,18.3,60.8c-6.2,23.4-22,37.8-45.5,43.6
		c-2.6,0.6-5.2,1-7.9,1.4C62.1,129.6,58.8,129.6,55.6,129.6z"/>
	<path class="st0" d="M62.5,0c5,2,6.7,5.8,6.6,11.1c-0.2,16-0.1,32-0.1,48c0,2.9-0.4,5.6-2.7,7.6c-2.7,2.3-5.7,3.1-9.1,1.7
		c-3.3-1.4-5.2-4-5.2-7.8c0-14.5,0-29,0-43.4c0-2,0.2-4,0-6C51.4,5.8,53.5,2.1,58.4,0C59.8,0,61.1,0,62.5,0z"/>
</g>
</svg>
