<svg id="Capa_1" data-name="Capa 1" xmlns="http://www.w3.org/2000/svg" viewBox="0 0 762.42 207.12"><defs><style>.cls-1,.cls-2{fill:#fff;}.cls-2{font-size:186.18px;stroke:#fff;stroke-linecap:round;stroke-linejoin:round;font-family:Corbel-Bold, Corbel;font-weight:700;}.cls-3{letter-spacing:-0.06em;}</style></defs><title>iconUser</title><path class="cls-1" d="M180.71,90.36A90.36,90.36,0,1,0,89.83,180.7l.53,26.42,56.45-46.21h-.05A90.14,90.14,0,0,0,180.71,90.36Zm-120.38-40A13.16,13.16,0,1,1,47.17,63.49,13.16,13.16,0,0,1,60.33,50.33Zm28.54,90.92A45.88,45.88,0,0,1,43,95.37h91.77A45.89,45.89,0,0,1,88.87,141.25ZM134.1,77.43a3.91,3.91,0,0,1-3.25,1.73,3.86,3.86,0,0,1-2.17-.66L111.14,66.73a3.91,3.91,0,0,1,0-6.48l17.54-11.9a3.91,3.91,0,1,1,4.39,6.46L120.3,63.47,133,72A3.91,3.91,0,0,1,134.1,77.43Z"/><text class="cls-2" transform="translate(219.42 158.15)"><tspan class="cls-3">T</tspan><tspan x="94.36" y="0">ell</tspan></text><text class="cls-2" transform="translate(519.43 158.15)">Me</text></svg>