<?xml version="1.0" encoding="utf-8"?>
<!-- Generator: Adobe Illustrator 24.0.2, SVG Export Plug-In . SVG Version: 6.00 Build 0)  -->
<svg version="1.1" id="Capa_1" xmlns="http://www.w3.org/2000/svg" xmlns:xlink="http://www.w3.org/1999/xlink" x="0px" y="0px"
	 viewBox="0 0 51.5 51.5" style="enable-background:new 0 0 51.5 51.5;" xml:space="preserve">
<style type="text/css">
	.st0{fill:#FB727C;}
	.st1{fill:#FFFFFF;}
</style>
<circle class="st0" cx="25.8" cy="25.8" r="25.8"/>
<path class="st1" d="M40.1,20.5c-0.4-1.5-1.2-2.8-2.3-3.8c-1.8-1.6-3.9-2.2-6.3-1.9c-0.9,0.1-1.8,0.5-2.6,1c-1,0.6-1.8,1.5-2.4,2.4
	c-0.3,0.4-0.5,0.8-0.8,1.2c0,0,0,0,0-0.1c-0.7-1.2-1.5-2.3-2.6-3.2c-1.2-0.9-2.5-1.4-4-1.5c-1,0-2,0.1-2.9,0.5
	c-1.7,0.6-2.9,1.7-3.9,3.2c-0.7,1.1-1.1,2.3-1.2,3.5c-0.1,0.9-0.1,1.8,0,2.7c0.2,1.3,0.7,2.5,1.4,3.6c0.8,1.3,1.8,2.5,2.9,3.6
	c1.3,1.4,2.8,2.6,4.2,3.9c1.7,1.5,3.4,2.9,5.1,4.4c0.2,0.1,0.3,0.3,0.5,0.4c0.3,0.3,0.7,0.3,1,0c0.7-0.6,1.4-1.3,2.2-1.9
	c1.5-1.3,3-2.6,4.5-3.9c1.4-1.2,2.8-2.5,4.1-3.9c0.9-1,1.8-2.2,2.4-3.4c0.6-1.1,0.9-2.4,1-3.6C40.5,22.7,40.4,21.6,40.1,20.5z"/>
</svg>
