<?xml version="1.0" encoding="utf-8"?>
<!-- Generator: Adobe Illustrator 24.0.2, SVG Export Plug-In . SVG Version: 6.00 Build 0)  -->
<svg version="1.1" id="Capa_1" xmlns="http://www.w3.org/2000/svg" xmlns:xlink="http://www.w3.org/1999/xlink" x="0px" y="0px"
	 viewBox="0 0 51.5 59" style="enable-background:new 0 0 51.5 59;" xml:space="preserve">
<style type="text/css">
	.st0{fill:#FFFFFF;}
</style>
<path class="st0" d="M51.5,25.7C51.5,11.5,40,0,25.8,0S0,11.5,0,25.7c0,14.2,11.4,25.7,25.6,25.7l0.2,7.5l16.1-13.2l0,0
	C47.7,41.1,51.5,33.9,51.5,25.7z M17.2,14.3c2.1,0,3.8,1.7,3.8,3.8c0,2.1-1.7,3.8-3.8,3.8c-2.1,0-3.8-1.7-3.8-3.8
	C13.4,16,15.1,14.3,17.2,14.3z M25.3,40.2c-7.2,0-13.1-5.9-13.1-13.1h26.2C38.4,34.4,32.5,40.2,25.3,40.2z M38.2,22.1
	c-0.2,0.3-0.6,0.5-0.9,0.5c-0.2,0-0.4-0.1-0.6-0.2l-5-3.4c-0.3-0.2-0.5-0.6-0.5-0.9c0-0.4,0.2-0.7,0.5-0.9l5-3.4
	c0.5-0.3,1.2-0.2,1.5,0.3c0.3,0.5,0.2,1.2-0.3,1.5l-3.6,2.5l3.6,2.4C38.4,20.9,38.6,21.5,38.2,22.1z"/>
</svg>
