<?xml version="1.0" encoding="utf-8"?>
<!-- Generator: Adobe Illustrator 24.0.2, SVG Export Plug-In . SVG Version: 6.00 Build 0)  -->
<svg version="1.1" id="Capa_1" xmlns="http://www.w3.org/2000/svg" xmlns:xlink="http://www.w3.org/1999/xlink" x="0px" y="0px"
	 viewBox="0 0 51.5 57" style="enable-background:new 0 0 51.5 57;" xml:space="preserve">
<style type="text/css">
	.st0{fill:#FFFFFF;}
</style>
<path class="st0" d="M5.7,0c0.6,0,1.1,0,1.7,0c0.1,0,0.2,0.1,0.3,0.1c1.6,0.3,2.8,1,3.9,2.2c4.4,5,8.8,10.1,13.2,15.1
	c0.3,0.4,0.7,0.7,1,1.1c0.1-0.1,0.2-0.2,0.3-0.3c4.7-5.3,9.3-10.6,14-15.9c0.4-0.5,1-1,1.6-1.3c0.8-0.4,1.7-0.6,2.5-0.9
	c0.6,0,1.1,0,1.7,0c0.1,0,0.2,0.1,0.4,0.1c2.4,0.5,4.2,1.9,5,4.3c0.8,2.4,0.4,4.6-1.2,6.5c-4.9,5.7-9.9,11.3-14.9,17
	c-0.2,0.2-0.4,0.4-0.5,0.6c0.1,0.1,0.1,0.2,0.2,0.3c5,5.7,10,11.4,15,17.2c1.1,1.3,1.7,2.7,1.8,4.4c0.1,2.8-1.6,5.2-4.2,6.2
	c-2.6,1-5.5,0.3-7.3-1.8c-4.4-5.1-8.9-10.2-13.3-15.2c-0.3-0.3-0.6-0.7-0.9-1c-0.1,0.1-0.2,0.2-0.3,0.3c-4.7,5.3-9.3,10.6-14,16
	c-2.4,2.7-6.5,3-9.2,0.6c-2.7-2.4-3-6.6-0.6-9.3c5-5.7,10-11.4,15-17.1c0.1-0.2,0.3-0.3,0.4-0.5c-0.1-0.1-0.2-0.2-0.3-0.3
	c-5-5.7-10-11.5-15-17.2C-1.1,7.8-0.4,2.9,3.3,0.9C4.1,0.5,4.9,0.3,5.7,0z"/>
</svg>
